<svg width="24" height="23" viewBox="0 0 24 23" fill="none" xmlns="http://www.w3.org/2000/svg">
<path d="M22.4103 7.78751L15.4678 6.77853L12.3643 0.486729C12.2795 0.314463 12.14 0.17501 11.9678 0.0902445C11.5357 -0.123037 11.0107 0.0546976 10.7947 0.486729L7.69121 6.77853L0.748629 7.78751C0.557223 7.81485 0.382223 7.90509 0.248238 8.04181C0.0862588 8.20829 -0.00299936 8.43228 7.69615e-05 8.66454C0.00315328 8.8968 0.0983124 9.11834 0.264645 9.28048L5.28769 14.1777L4.10097 21.093C4.07314 21.2538 4.09094 21.4193 4.15236 21.5705C4.21377 21.7218 4.31634 21.8528 4.44843 21.9488C4.58052 22.0447 4.73684 22.1017 4.89968 22.1133C5.06252 22.1249 5.22536 22.0907 5.36972 22.0145L11.5795 18.7496L17.7893 22.0145C17.9588 22.1047 18.1557 22.1348 18.3443 22.102C18.8201 22.0199 19.14 21.5688 19.058 21.093L17.8713 14.1777L22.8943 9.28048C23.031 9.1465 23.1213 8.97149 23.1486 8.78009C23.2225 8.30157 22.8889 7.8586 22.4103 7.78751Z" fill="black"/>
</svg>
